<svg xmlns="http://www.w3.org/2000/svg" viewBox="0 0 1500 1000" width="1500mm" height="1000mm"><style >

.small { font: 10px sans-serif; fill:black}
svg {background-color: white;}
.smallevidence { font: 10px sans-serif; fill:red}
.heavy { font: bold 30px sans-serif; }
.heavyevidence { font: bold 30px sans-serif; fill:red}

.title { font: italic 40px sans-serif; fill:red; }

</style><path stroke="#ff0000" stroke-width="15" d="M 1070.46 929.03 L 1070.46 929.03 L 1011.62 927.84 L 1011.62 927.84 L 987.99 927.34 L 987.99 927.34 L 982.42 927.24 L 977.98 927.03 L 947.45 925.14 L 943.25 924.92 L 928.29 924.5 L 928.29 924.5 L 920.82 924.34 L 920.82 924.34 L 912.52 924.23 L 908.36 924.53 L 906.01 924.87 L 903.64 925.33 L 901.31 925.92 L 897.93 926.97 L 894.62 928.3 L 889.4 930.83 L 862.88 944.24 L 859.17 945.98 L 856.45 947.07 L 853.17 948.13 L 849.17 949.07 L 846.88 949.51 L 844.53 949.76 L 842.17 949.92 L 839.81 950.0 L 834.61 949.87 L 834.61 949.87 L 828.01 949.73 L 828.01 949.73 L 719.25 947.35 L 719.25 947.35 L 711.24 947.19 L 711.24 947.19 L 650.65 946.01 L 639.06 945.93 L 632.94 945.95 L 626.87 945.84 L 624.29 945.71 L 622.16 945.5 L 620.71 945.18 L 619.54 944.89 L 618.33 944.46 L 616.9 943.8 L 615.71 943.07 L 614.62 942.28 L 613.69 941.49 L 612.81 940.66 L 612.05 939.72 L 611.36 938.78 L 610.76 937.76 L 610.24 936.45 L 609.94 935.37 L 609.71 934.09 L 609.62 932.97 L 609.65 928.78 L 609.65 928.78 L 609.79 922.75 L 609.79 922.75 L 610.3 907.21 L 610.38 904.55 L 610.96 896.7 L 611.15 892.65 L 612.36 852.86 L 612.63 848.23 L 612.8 846.0 L 613.24 842.94 L 616.31 825.52 L 616.51 823.38 L 616.58 821.58 L 616.58 819.47 L 616.13 815.04 L 616.13 815.04 L 615.52 808.58 L 615.52 808.58 L 613.79 792.4300000000001 L 610.02 765.06 L 609.39 761.9300000000001 L 608.49 758.77 L 607.21 755.2 L 604.35 747.86 L 603.23 744.79 L 602.06 741.0 L 600.65 734.73 L 600.65 734.73 L 599.51 729.74 L 599.51 729.74 L 597.82 722.09 L 597.46 719.72 L 597.2 717.65 L 597.23 714.51 L 597.41 711.88 L 597.97 708.75 L 599.07 705.04 L 600.02 702.65 L 601.5 699.72 L 603.28 696.9300000000001 L 605.41 694.25 L 607.55 691.8199999999999 L 609.02 690.4200000000001 L 610.81 688.96 L 614.26 686.51 L 617.14 684.8199999999999 L 619.28 683.75 L 622.23 682.35 L 625.73 681.1 L 637.82 677.56 L 642.59 675.99 L 646.66 674.2 L 648.25 673.4100000000001 L 649.24 672.88 L 652.4 670.94 L 654.69 669.28 L 656.9 667.4 L 659.33 664.95 L 661.16 662.87 L 662.81 660.6600000000001 L 664.3 658.3399999999999 L 665.52 655.99 L 666.88 652.9200000000001 L 667.63 650.45 L 668.3 647.81 L 668.79 644.56 L 668.9 641.77 L 668.77 639.19 L 668.33 635.96 L 667.78 633.4200000000001 L 667.04 630.9200000000001 L 665.77 627.85 L 664.5 625.35 L 663.15 623.0899999999999 L 661.49 620.8399999999999 L 659.64 618.6800000000001 L 657.6 616.44 L 654.58 613.54 L 651.43 610.63 L 651.43 610.63 L 646.73 606.28 L 646.73 606.28 L 639.12 599.3 L 635.88 596.62 L 632.51 594.28 L 628.99 592.02 L 626.3 590.62 L 623.38 589.24 L 620.48 587.99 L 617.5 586.9300000000001 L 612.32 585.38 L 608.28 584.35 L 583.54 578.0899999999999 L 583.54 578.0899999999999 L 577.73 576.63 L 573.13 575.47 L 573.13 575.47 L 569.68 574.61 L 564.58 573.04 L 561.23 571.6700000000001 L 558.15 570.1800000000001 L 556.31 569.12 L 553.06 566.9300000000001 L 550.39 564.74 L 548.54 562.88 L 546.75 560.9300000000001 L 545.6 559.4300000000001 L 544.15 557.36 L 543.23 555.77 L 542.05 553.46 L 540.69 550.02 L 539.96 547.02 L 539.36 543.54 L 539.21 540.61 L 539.38 537.9100000000001 L 539.76 534.95 L 540.38 532.22 L 541.63 526.0899999999999 L 542.13 523.22 L 542.72 518.36 L 542.88 513.5899999999999 L 542.78 495.6 L 542.78 495.6 L 542.76 490.39 L 542.76 490.39 L 542.48 484.11 L 542.1 476.45000000000005 L 541.85 471.9100000000001 L 540.47 430.66999999999996 L 540.21 427.11 L 539.55 423.0 L 538.77 420.02 L 537.63 417.04999999999995 L 536.19 414.17999999999995 L 534.2 410.95000000000005 L 532.1 408.36 L 530.11 406.22 L 525.62 401.92999999999995 L 525.62 401.92999999999995 L 518.6800000000001 396.04999999999995 L 518.6800000000001 396.04999999999995 L 515.1800000000001 393.01 L 511.35 389.28999999999996 L 509.48 387.20000000000005 L 506.97 383.88 L 502.81 377.62 L 498.03 371.39 L 494.59 367.67999999999995 L 490.71 364.37 L 486.58 361.41999999999996 L 482.58 359.26 L 479.69 357.90999999999997 L 476.54 356.53999999999996 L 471.46 354.62 L 437.44 342.25 L 434.39 340.94000000000005 L 431.9 339.76 L 428.08 337.86 L 423.23 334.97 L 415.12 329.52 L 415.12 329.52 L 411.88 327.45000000000005 L 411.88 327.45000000000005 L 406.78 323.86 L 405.24 322.72 L 402.67 320.76 L 400.17 318.38 L 398.31 316.40999999999997 L 396.17 313.71000000000004 L 394.8 311.61 L 393.93 310.17999999999995 L 393.08 308.54999999999995 L 391.56 305.42999999999995 L 383.74 288.25 L 381.57 284.0 L 379.47 280.44000000000005 L 377.49 277.73 L 377.49 277.73 L 376.45 276.44000000000005 L 375.31 275.20000000000005 L 374.15 274.04999999999995 L 372.84 272.88 L 370.79 271.26 L 368.52 269.6 L 366.56 268.44000000000005 L 364.59 267.39 L 362.87 266.59000000000003 L 361.19 265.9 L 359.93 265.42999999999995 L 359.93 265.42999999999995 L 358.33 264.85 L 355.8 264.08000000000004 L 353.59 263.53999999999996 L 350.71 262.95000000000005 L 344.35 261.98 L 340.29 261.42999999999995 L 337.82 261.17999999999995 L 335.47 261.02 L 332.14 261.0 L 328.94 261.09000000000003 L 328.94 261.09000000000003 L 319.56 261.59000000000003 L 319.56 261.59000000000003 L 312.07 262.0 L 307.4 262.21000000000004 L 302.49 262.26 L 294.52 261.78999999999996 L 284.05 261.22 L 281.71000000000004 261.24 L 279.99 261.33000000000004 L 278.68 261.44000000000005 L 277.28999999999996 261.59000000000003 L 275.38 261.95000000000005 L 273.57 262.35 L 271.7 262.84000000000003 L 269.90999999999997 263.42999999999995 L 263.56 266.26 L 260.44 267.80999999999995 L 257.4 269.21000000000004 L 255.7 269.9 L 254.15 270.45000000000005 L 252.03 271.1 L 250.24 271.51 L 248.57 271.78999999999996 L 246.24 272.07000000000005 L 244.81 272.17999999999995 L 242.9 272.20000000000005 L 240.6 272.12 L 238.04 271.82000000000005 L 235.35 271.35 L 230.56 270.19000000000005 L 225.16 268.82000000000005 L 222.89 268.35 L 220.26 267.97 L 217.93 267.74 L 215.49 267.63 L 214.42 267.63 L 214.42 267.63 L 210.85 267.61 L 201.65 267.63 L 182.98 267.75 L 182.98 267.75 L 175.42000000000002 267.83000000000004 L 169.89 267.76 L 169.19 267.75 L 165.76999999999998 267.64 L 165.76999999999998 267.64 L 159.56 267.49 L 159.56 267.49 L 147.04000000000002 267.15999999999997 L 147.04000000000002 267.15999999999997 L 109.81 266.20000000000005 L 103.6 266.20000000000005 L 89.46000000000001 266.80999999999995 L 86.67 266.91999999999996 L 79.92 266.89 L 54.89 266.5 L 54.89 266.5" stroke-linecap="round" fill="none"/><path stroke="#00ff00" stroke-width="15" d="M 173.05 833.41 L 173.05 833.41 L 175.59 830.35 L 175.59 830.35 L 179.4 825.77 L 184.94 821.15 L 189.53 818.25 L 194.91 815.06 L 229.23 800.8199999999999 L 238.74 796.15 L 244.27 792.3 L 249.46 787.88 L 255.05 781.6 L 258.34000000000003 776.44 L 258.34000000000003 776.44 L 259.26 774.3199999999999 L 259.95 772.19 L 260.12 771.1 L 260.19 769.99 L 260.19 768.81 L 260.08000000000004 767.62 L 259.49 765.53 L 258.59000000000003 763.59 L 257.7 762.2 L 256.57 760.8199999999999 L 253.18 757.3 L 253.18 757.3 L 242.45 747.13 L 242.45 747.13 L 240.1 745.26 L 240.1 745.26 L 239.19 744.53 L 233.82 740.42 L 227.43 736.6800000000001 L 224.33 735.26 L 221.14 734.05 L 212.11 731.26 L 172.91 722.36 L 168.34 721.01 L 163.85 719.5 L 159.28 717.37 L 154.95 715.03 L 147.14 709.8 L 146.76999999999998 709.55 L 139.62 702.49 L 134.06 694.7 L 132.57999999999998 691.65 L 131.22 688.8 L 127.82 677.37 L 127.23 674.98 L 127.23 674.98 L 122.47 656.37 L 122.47 656.37 L 121.83 653.9300000000001 L 120.99 645.6700000000001 L 121.15 637.49 L 122.34 629.81 L 123.31 626.97 L 125.65 620.1800000000001 L 131.64 609.86 L 140.11 600.29 L 149.39 593.24 L 156.32999999999998 589.26 L 167.01 584.8299999999999 L 167.01 584.8299999999999 L 173.12 583.36 L 180.23 581.6600000000001 L 188.78 580.95 L 200.55 581.29 L 247.12 584.03 L 278.39 584.76 L 318.98 585.0 L 321.83 585.01 L 321.83 585.01 L 345.75 585.12 L 345.75 585.12 L 348.03 585.13 L 355.61 584.71 L 362.66 583.6 L 372.04 581.0899999999999 L 391.58 573.4300000000001 L 402.09 570.87 L 411.62 569.98 L 419.39 570.2 L 452.43 573.9100000000001 L 464.15 574.0699999999999 L 476.39 572.86 L 484.83 571.31 L 484.83 571.31 L 504.94 567.01 L 504.94 567.01 L 513.56 565.13 L 522.89 563.48 L 528.47 563.11 L 531.74 563.14 L 534.55 563.4100000000001 L 544.88 565.98 L 547.46 566.99 L 550.99 568.78 L 557.53 572.89 L 572.42 585.6600000000001 L 584.54 594.12 L 591.81 598.0699999999999 L 602.93 602.06 L 615.29 604.36 L 626.96 604.76 L 633.4 604.37 L 636.18 604.0899999999999 L 636.18 604.0899999999999 L 640.36 603.6600000000001 L 645.49 602.8299999999999 L 645.49 602.8299999999999 L 658.16 600.78 L 658.16 600.78 L 663.08 599.87 L 663.08 599.87 L 673.55 596.8399999999999 L 681.76 592.22 L 687.78 587.3399999999999 L 691.09 583.0899999999999 L 693.77 578.48 L 696.17 570.4 L 696.76 565.55 L 696.53 560.5799999999999 L 695.66 555.98 L 694.22 551.8299999999999 L 692.19 547.73 L 689.9 543.53 L 684.05 536.26 L 677.77 530.4300000000001 L 668.23 524.03 L 668.23 524.03 L 656.42 518.28 L 656.42 518.28 L 656.06 518.11 L 644.94 511.89 L 628.99 499.25 L 618.58 492.35 L 596.75 481.06999999999994 L 596.75 481.06999999999994 L 587.19 476.14 L 578.53 471.5 L 578.53 471.5 L 572.44 468.25 L 563.28 461.89 L 559.3 457.99 L 555.56 453.73 L 552.99 449.78 L 552.99 449.78 L 550.64 445.75 L 547.77 438.69 L 541.15 418.04999999999995 L 536.5699999999999 407.27 L 533.81 401.51 L 533.81 401.51 L 527.75 388.80999999999995 L 527.75 388.80999999999995 L 526.1600000000001 385.47 L 524.85 382.0 L 523.5699999999999 377.63 L 522.97 373.91999999999996 L 522.6800000000001 370.1 L 522.6800000000001 366.19000000000005 L 523.1700000000001 362.20000000000005 L 524.15 358.04999999999995 L 525.63 353.82000000000005 L 527.95 349.35 L 530.97 344.77 L 534.46 340.73 L 538.54 336.94000000000005 L 547.04 331.30999999999995 L 552.3399999999999 328.74 L 557.69 326.87 L 564.14 325.45000000000005 L 570.55 324.6 L 591.28 323.52 L 591.28 323.52 L 652.1 319.73 L 662.71 318.96000000000004 L 662.71 318.96000000000004 L 679.21 317.76 L 679.21 317.76 L 686.14 317.25 L 690.86 316.65 L 695.57 315.80999999999995 L 699.13 314.71000000000004 L 702.65 313.30999999999995 L 712.86 308.35 L 718.0 304.57000000000005 L 722.56 300.38 L 725.82 296.34000000000003 L 728.42 291.82000000000005 L 731.58 283.98 L 733.42 276.14 L 734.15 268.98 L 734.38 263.77 L 734.49 258.30999999999995 L 735.29 253.87 L 736.58 248.91999999999996 L 747.15 226.76 L 753.99 214.95000000000005 L 763.27 200.14999999999998 L 763.27 200.14999999999998 L 772.46 185.47000000000003 L 772.46 185.47000000000003 L 775.69 180.28999999999996 L 781.23 170.48000000000002 L 787.79 152.10000000000002 L 791.9 143.74 L 797.81 135.67999999999995 L 804.37 129.40999999999997 L 812.15 123.39999999999998 L 821.79 117.85000000000002 L 835.51 112.5 L 849.05 109.63 L 861.68 108.47000000000003 L 864.28 108.36000000000001 L 864.28 108.36000000000001 L 890.1 107.30999999999995 L 890.1 107.30999999999995 L 904.61 106.74000000000001 L 915.74 107.29999999999995 L 925.54 109.88 L 934.72 114.10000000000002 L 941.26 118.05999999999995 L 946.45 122.86000000000001 L 950.85 128.17999999999995 L 953.79 132.67999999999995 L 955.96 137.24 L 958.31 147.64 L 958.31 147.64 L 959.39 154.51 L 960.87 165.34000000000003 L 962.9 180.21000000000004 L 965.98 199.29999999999995 L 965.98 199.29999999999995 L 968.99 217.94000000000005 L 970.08 224.09000000000003 L 970.08 224.09000000000003 L 971.62 229.38 L 972.32 230.76999999999998 L 973.4 232.25 L 974.67 233.64999999999998 L 977.23 236.07000000000005 L 980.13 238.36 L 981.87 239.38 L 983.72 240.30999999999995 L 985.76 241.09000000000003 L 988.13 241.80999999999995 L 991.73 242.59000000000003 L 995.8 243.21000000000004 L 999.5 243.30999999999995 L 1003.38 243.21000000000004 L 1006.09 242.90999999999997 L 1008.66 242.33000000000004 L 1010.2 241.89999999999998 L 1010.2 241.89999999999998 L 1010.76 241.75 L 1012.52 241.15999999999997 L 1012.73 241.09000000000003 L 1017.46 238.71000000000004 L 1022.92 236.35000000000002 L 1030.65 233.5 L 1034.1 232.75 L 1037.69 232.32000000000005 L 1040.98 232.20000000000005 L 1044.26 232.19000000000005 L 1047.88 232.51999999999998 L 1051.5 232.98000000000002 L 1101.47 246.5 L 1101.47 246.5 L 1107.42 247.98000000000002 L 1107.42 247.98000000000002 L 1127.67 253.34000000000003 L 1131.91 254.39999999999998 L 1133.4 254.69000000000005 L 1135.06 254.97000000000003 L 1136.59 255.14 L 1138.2 255.24 L 1139.93 255.20000000000005 L 1141.76 255.11 L 1143.54 254.87 L 1145.2 254.55999999999995 L 1145.2 254.55999999999995 L 1146.64 254.21000000000004 L 1148.73 253.60000000000002 L 1163.13 248.79999999999995 L 1166.98 247.49 L 1166.98 247.49 L 1177.48 243.84000000000003 L 1183.35 241.71000000000004 L 1185.77 240.70000000000005 L 1188.69 239.30999999999995 L 1191.8 237.66999999999996 L 1193.96 236.36 L 1196.09 234.99 L 1199.66 232.46000000000004 L 1220.23 216.76 L 1232.25 207.62 L 1236.23 204.58000000000004 L 1242.53 199.83000000000004 L 1243.98 198.73000000000002 L 1263.14 184.16999999999996 L 1267.69 180.59000000000003 L 1272.5 176.94000000000005 L 1277.04 173.58000000000004 L 1282.25 170.01999999999998 L 1286.55 167.38 L 1289.82 165.53999999999996 L 1293.0 163.85000000000002 L 1297.6 161.55999999999995 L 1300.24 160.35000000000002 L 1303.57 158.96000000000004 L 1306.14 157.90999999999997 L 1309.01 156.89999999999998 L 1312.93 155.66999999999996 L 1316.53 154.80999999999995 L 1316.53 154.80999999999995 L 1320.13 153.95000000000005 L 1322.06 153.5 L 1322.06 153.5 L 1327.66 152.27999999999997 L 1331.36 151.41999999999996 L 1331.36 151.41999999999996 L 1335.11 150.55999999999995 L 1336.74 150.25 L 1336.74 150.25 L 1341.56 149.33000000000004 L 1344.08 148.95000000000005 L 1346.7 148.64999999999998 L 1349.07 148.5 L 1351.22 148.45000000000005 L 1356.2 148.5 L 1361.31 148.89999999999998 L 1365.99 149.53999999999996 L 1385.84 152.02999999999997 L 1389.25 152.38 L 1391.87 152.53999999999996 L 1395.05 152.54999999999995 L 1397.87 152.39 L 1400.26 152.16999999999996 L 1403.26 151.63 L 1405.06 151.21000000000004 L 1406.72 150.70000000000005 L 1409.9 149.61 L 1412.66 148.58000000000004 L 1414.71 147.63 L 1416.68 146.53999999999996 L 1418.95 145.19000000000005 L 1421.23 143.59000000000003 L 1423.22 142.02999999999997 L 1426.17 139.22000000000003 L 1427.99 137.14999999999998 L 1429.74 134.59000000000003 L 1430.35 133.75 L 1431.07 132.45000000000005 L 1431.92 130.86 L 1432.97 128.47000000000003 L 1433.94 125.63999999999999 L 1434.53 123.42999999999995 L 1434.95 121.09000000000003 L 1435.18 119.00999999999999 L 1435.43 115.15999999999997 L 1435.48 98.67999999999995 L 1435.51 95.19000000000005 L 1435.51 95.19000000000005 L 1435.51 90.01999999999998 L 1435.64 88.05999999999995 L 1435.82 86.48000000000002 L 1436.17 84.76999999999998 L 1436.39 83.80999999999995 L 1436.53 83.34000000000003 L 1436.98 82.05999999999995 L 1437.2 81.5 L 1437.57 80.65999999999997 L 1438.1 79.70000000000005 L 1438.72 78.63 L 1440.02 76.80999999999995 L 1440.99 75.66999999999996 L 1440.99 75.66999999999996 L 1442.21 74.30999999999995 L 1444.79 71.82000000000005 L 1446.58 70.16999999999996 L 1446.58 70.16999999999996" stroke-linecap="round" fill="none"/><rect stroke="#0000ff" stroke-width="1" x="1058.5" y="914.06" width="30" height="30" fill="#0000ff"/><polygon stroke="#0000ff" stroke-width="1" points="50.0 251.40999999999997 65.0 281.40999999999997 35.0 281.40999999999997" fill="#0000ff"/><circle stroke="#0000ff" stroke-width="1" cx="924.54" cy="924.42" r="15.0" fill="#0000ff"/><circle stroke="#0000ff" stroke-width="1" cx="831.31" cy="949.8" r="15.0" fill="#0000ff"/><circle stroke="#0000ff" stroke-width="1" cx="715.26" cy="947.27" r="15.0" fill="#0000ff"/><circle stroke="#0000ff" stroke-width="1" cx="609.72" cy="925.79" r="15.0" fill="#0000ff"/><circle stroke="#0000ff" stroke-width="1" cx="615.82" cy="811.73" r="15.0" fill="#0000ff"/><circle stroke="#0000ff" stroke-width="1" cx="600.07" cy="732.22" r="15.0" fill="#0000ff"/><circle stroke="#0000ff" stroke-width="1" cx="649.33" cy="608.69" r="15.0" fill="#0000ff"/><circle stroke="#0000ff" stroke-width="1" cx="578.35" cy="576.78" r="15.0" fill="#0000ff"/><circle stroke="#0000ff" stroke-width="1" cx="542.78" cy="492.94000000000005" r="15.0" fill="#0000ff"/><circle stroke="#0000ff" stroke-width="1" cx="522.27" cy="398.97" r="15.0" fill="#0000ff"/><circle stroke="#0000ff" stroke-width="1" cx="413.47" cy="328.46000000000004" r="15.0" fill="#0000ff"/><circle stroke="#0000ff" stroke-width="1" cx="324.26" cy="261.34000000000003" r="15.0" fill="#0000ff"/><circle stroke="#0000ff" stroke-width="1" cx="162.84" cy="267.57000000000005" r="15.0" fill="#0000ff"/><rect stroke="#ff00ff" stroke-width="1" x="151.94" y="826.16" width="30" height="30" fill="#ff00ff"/><polygon stroke="#ff00ff" stroke-width="1" points="1450.0 51.960000000000036 1465.0 81.96000000000004 1435.0 81.96000000000004" fill="#ff00ff"/><circle stroke="#ff00ff" stroke-width="1" cx="249.87" cy="754.1800000000001" r="15.0" fill="#ff00ff"/><circle stroke="#ff00ff" stroke-width="1" cx="124.96" cy="665.77" r="15.0" fill="#ff00ff"/><circle stroke="#ff00ff" stroke-width="1" cx="333.37" cy="585.0799999999999" r="15.0" fill="#ff00ff"/><circle stroke="#ff00ff" stroke-width="1" cx="498.3" cy="568.47" r="15.0" fill="#ff00ff"/><circle stroke="#ff00ff" stroke-width="1" cx="651.44" cy="601.86" r="15.0" fill="#ff00ff"/><circle stroke="#ff00ff" stroke-width="1" cx="589.81" cy="477.49" r="15.0" fill="#ff00ff"/><circle stroke="#ff00ff" stroke-width="1" cx="531.05" cy="395.75" r="15.0" fill="#ff00ff"/><circle stroke="#ff00ff" stroke-width="1" cx="669.1" cy="318.5" r="15.0" fill="#ff00ff"/><circle stroke="#ff00ff" stroke-width="1" cx="769.23" cy="190.64999999999998" r="15.0" fill="#ff00ff"/><circle stroke="#ff00ff" stroke-width="1" cx="880.44" cy="107.70000000000005" r="15.0" fill="#ff00ff"/><circle stroke="#ff00ff" stroke-width="1" cx="968.13" cy="212.64999999999998" r="15.0" fill="#ff00ff"/><circle stroke="#ff00ff" stroke-width="1" cx="1157.01" cy="250.87" r="15.0" fill="#ff00ff"/><circle stroke="#ff00ff" stroke-width="1" cx="1326.2" cy="152.60000000000002" r="15.0" fill="#ff00ff"/></svg>