<?xml version="1.0" encoding="UTF-8" standalone="no"?>
<svg
   viewBox="0 0 800 600"
   width="800mm"
   height="600mm"
   version="1.1"
   id="svg27"
   sodipodi:docname="rennes_metro_worked2.svg"
   inkscape:version="1.3.2 (091e20e, 2023-11-25, custom)"
   xmlns:inkscape="http://www.inkscape.org/namespaces/inkscape"
   xmlns:sodipodi="http://sodipodi.sourceforge.net/DTD/sodipodi-0.dtd"
   xmlns="http://www.w3.org/2000/svg"
   xmlns:svg="http://www.w3.org/2000/svg">
  <defs
     id="defs27" />
  <sodipodi:namedview
     id="namedview27"
     pagecolor="#ffffff"
     bordercolor="#000000"
     borderopacity="0.25"
     inkscape:showpageshadow="2"
     inkscape:pageopacity="0.0"
     inkscape:pagecheckerboard="0"
     inkscape:deskcolor="#d1d1d1"
     inkscape:document-units="mm"
     showborder="false"
     inkscape:zoom="2.6574019"
     inkscape:cx="1002.4829"
     inkscape:cy="1086.9639"
     inkscape:window-width="1920"
     inkscape:window-height="1017"
     inkscape:window-x="-8"
     inkscape:window-y="-8"
     inkscape:window-maximized="1"
     inkscape:current-layer="svg27" />
  <style
     id="style1">

.small { font: 10px sans-serif; fill:black}
svg {background-color: white;}
.smallevidence { font: 10px sans-serif; fill:red}
.heavy { font: bold 30px sans-serif; }
.heavyevidence { font: bold 30px sans-serif; fill:red}

.title { font: italic 40px sans-serif; fill:red; }

</style>
  <path
     stroke="#ff0000"
     stroke-width="7.734"
     d="m 568.49126,547.50521 v 0 l -30.33791,-0.61357 v 0 l -12.18362,-0.2578 v 0 l -2.87189,-0.0516 -2.28927,-0.10827 -15.74127,-0.97449 -2.16552,-0.11343 -7.71337,-0.21655 v 0 l -3.85153,-0.0825 v 0 l -4.27948,-0.0567 -2.1449,0.15468 -1.21166,0.1753 -1.22197,0.23718 -1.20135,0.3042 -1.74273,0.54138 -1.70663,0.68575 -2.69143,1.30447 -13.67371,6.91419 -1.91288,0.89715 -1.40243,0.562 -1.69117,0.54654 -2.0624,0.48466 -1.18072,0.22686 -1.21166,0.1289 -1.21682,0.0825 -1.21682,0.0412 -2.68112,-0.067 v 0 l -3.40296,-0.0722 v 0 L 387.40739,556.951 v 0 l -4.12995,-0.0825 v 0 l -31.24021,-0.60841 -5.9758,-0.0412 -3.15547,0.0103 -3.12969,-0.0567 -1.33025,-0.067 -1.09823,-0.10827 -0.74762,-0.16499 -0.60325,-0.14953 -0.62388,-0.22171 -0.73731,-0.34029 -0.61356,-0.37639 -0.562,-0.40732 -0.47951,-0.40733 -0.45373,-0.42795 -0.39186,-0.48466 -0.35576,-0.48466 -0.30936,-0.52592 -0.26811,-0.67543 -0.15468,-0.55685 -0.11859,-0.65997 -0.0464,-0.57747 0.0155,-2.16036 v 0 l 0.0722,-3.10907 v 0 l 0.26295,-8.01243 0.0412,-1.37149 0.29905,-4.04746 0.098,-2.08818 0.62388,-20.51572 0.13921,-2.38723 0.0876,-1.14979 0.22687,-1.57774 1.58289,-8.98175 0.10312,-1.10338 0.0361,-0.92808 v -1.08792 l -0.23202,-2.2841 v 0 l -0.31451,-3.33078 v 0 l -0.89199,-8.32694 -1.94381,-14.11197 -0.32483,-1.61383 -0.46404,-1.62929 -0.65997,-1.8407 -1.47462,-3.7845 -0.57747,-1.58289 -0.60325,-1.95413 -0.727,-3.23281 v 0 l -0.58778,-2.57284 v 0 l -0.87136,-3.94434 -0.18562,-1.22197 -0.13405,-1.0673 0.0155,-1.61898 0.0928,-1.35603 0.28874,-1.61383 0.56716,-1.91287 0.48982,-1.23229 0.76308,-1.5107 0.91777,-1.43853 1.09823,-1.3818 1.10338,-1.25291 0.75794,-0.72184 0.92292,-0.75278 1.77882,-1.26322 1.48493,-0.87136 1.10338,-0.55169 1.52102,-0.72184 1.8046,-0.6445 6.23361,-1.82523 2.45941,-0.80949 2.09849,-0.92292 0.8198,-0.40733 0.51045,-0.27327 1.62929,-1.00026 1.18073,-0.8559 1.13947,-0.96932 1.25291,-1.26322 0.94355,-1.07245 0.85074,-1.13948 0.76824,-1.19619 0.62904,-1.21166 0.70121,-1.58289 0.3867,-1.27353 0.34545,-1.36119 0.25265,-1.6757 0.0567,-1.43852 -0.067,-1.33025 -0.22686,-1.66539 -0.28358,-1.30962 -0.38154,-1.289 -0.65481,-1.58289 -0.65482,-1.289 -0.69606,-1.16526 -0.85589,-1.1601 -0.95386,-1.11369 c -2.05908,-2.28734 -2.71977,-4.3032 -3.62908,-7.16429 -2.02764,-5.03142 -1.55967,-2.68453 -3.66419,-7.97524 l -1.76676,-2.2285 c -3.80168,-3.44027 -2.62985,-1.46094 -12.98581,-3.35984 l -4.89871,-0.89825 c -6.53787,-1.1988 -9.47159,-4.84081 -11.63281,-7.06528 -3.69484,-3.61846 -17.02116,-15.79009 -18.11879,-18.5718 -1.16207,-2.08956 -3.58242,-4.62239 -3.50531,-6.92121 l -0.0516,-9.27564 v 0 l -0.0103,-2.68627 v 0 l -0.14437,-3.23797 -0.19592,-3.9495 -0.1289,-2.34082 -0.71153,-21.26334 -0.13406,-1.83554 -0.34029,-2.11912 -0.40217,-1.53648 -0.58779,-1.53134 -0.74246,-1.47977 -1.02604,-1.66539 -1.08276,-1.3354 -1.02605,-1.10338 -2.31504,-2.21193 v 0 l -3.57826,-3.03173 v 0 l -1.8046,-1.56742 -1.97475,-1.91803 -0.96417,-1.07761 -1.29416,-1.71179 -2.1449,-3.22765 -2.46456,-3.21219 -1.77367,-1.91288 -2.00053,-1.70663 -2.12942,-1.52102 -2.0624,-1.1137 -1.49009,-0.69606 -1.62414,-0.70637 -2.61925,-0.98995 -17.54071,-6.37797 -1.57258,-0.67544 -1.28384,-0.60841 -1.96959,-0.97964 -2.50066,-1.49008 -4.18152,-2.81002 v 0 l -1.67054,-1.06729 v 0 l -2.62956,-1.85101 -0.79403,-0.58778 -1.32509,-1.01058 -1.289,-1.22713 -0.95901,-1.01573 -1.10339,-1.39212 -0.70637,-1.08276 -0.44857,-0.73731 -0.43826,-0.84042 -0.78371,-1.60868 -4.03199,-8.858 -1.11886,-2.1913 -1.08276,-1.83554 -1.02088,-1.39727 v 0 l -0.53623,-0.66513 -0.58778,-0.63934 -0.5981,-0.59294 -0.67543,-0.60325 -1.05698,-0.83528 -1.17042,-0.85589 -1.01057,-0.5981 -1.01573,-0.54138 -0.88684,-0.41248 -0.8662,-0.35576 -0.64966,-0.24233 v 0 l -0.82496,-0.29905 -1.30447,-0.39701 -1.13947,-0.27843 -1.48493,-0.3042 -3.27922,-0.50013 -2.09333,-0.28358 -1.27354,-0.1289 -1.21166,-0.0825 -1.71694,-0.0103 -1.64992,0.0464 v 0 l -4.83633,0.2578 v 0 l -3.86184,0.2114 -2.40786,0.10827 -2.53159,0.0258 -4.10933,-0.24233 -5.39834,-0.29389 -1.2065,0.0103 -0.88683,0.0464 -0.67544,0.0567 -0.71668,0.0773 -0.9848,0.18562 -0.93323,0.20624 -0.96418,0.25264 -0.92292,0.30421 -3.27406,1.45914 -1.60867,0.79918 -1.56742,0.72184 -0.87652,0.35577 -0.79918,0.28358 -1.09308,0.33514 -0.92292,0.21139 -0.86105,0.14437 -1.20135,0.14437 -0.73731,0.0567 -0.98479,0.0103 -1.18588,-0.0413 -1.31994,-0.15468 -1.38696,-0.24233 -2.46973,-0.5981 -2.78424,-0.70637 -1.17041,-0.24233 -1.35603,-0.19593 -1.20135,-0.11859 -1.25806,-0.0567 h -0.55169 v 0 l -1.84069,-0.0103 -4.74352,0.0103 -9.62625,0.0619 v 0 l -3.89794,0.0412 -2.85127,-0.0361 -0.36092,-0.005 -1.76335,-0.0567 v 0 l -3.201876,-0.0773 v 0 l -6.455311,-0.17015 v 0 L 73.180146,205.75008 H 69.97827 l -7.290584,0.31451 -1.438524,0.0567 -3.480299,-0.0155 -12.905468,-0.20108 v 0"
     stroke-linecap="round"
     fill="none"
     id="path1"
     sodipodi:nodetypes="cccccccccccccccccccccccccccccccccccccccccccccccccccccccccccccccccccccccccccccccccccccccccccccccccccccccccccccccccccccccccccccccccccccccccccccsscccccccccccccccccccccccccccccccccccccccccccccccccccccccccccccccccccccccccccccccccccccccccccccccccccccccccccccccccccccccccccccccccccccccccccc"
     style="stroke-width:8;stroke-dasharray:none" />
  <path
     stroke="#00ff00"
     stroke-width="7.734"
     d="m 105.78669,498.20354 v 0 l 1.30962,-1.57774 v 0 l 1.96444,-2.36145 2.85642,-2.38207 2.36661,-1.49524 2.77392,-1.64476 17.69539,-7.34215 4.90336,-2.40785 2.85127,-1.98506 2.67596,-2.27895 2.88221,-3.23797 1.69632,-2.66049 v 0 l 0.47435,-1.09308 0.35577,-1.09822 0.0876,-0.56201 0.0361,-0.57231 v -0.60841 l -0.0567,-0.61357 -0.3042,-1.0776 -0.46404,-1.00026 -0.45888,-0.71669 -0.58263,-0.71152 -1.74789,-1.81492 v 0 l -5.53238,-5.24365 v 0 l -1.21166,-0.96417 v 0 l -0.4692,-0.37639 -2.76877,-2.11911 -3.29469,-1.92835 -1.59836,-0.73215 -1.64476,-0.62388 -4.65587,-1.43852 -20.21152,-4.58884 -2.35629,-0.69606 -2.31504,-0.77856 -2.356294,-1.09822 -2.232548,-1.20651 -4.026835,-2.69659 -0.190772,-0.1289 -3.68654,-3.64013 -2.866736,-4.01652 -0.763088,-1.57258 -0.701216,-1.46946 -1.75304,-5.89331 -0.304204,-1.23229 v 0 l -2.454256,-9.59531 v 0 l -0.329984,-1.25807 -0.433104,-4.25885 0.0825,-4.21761 0.613564,-3.95981 0.500132,-1.4643 1.206504,-3.50092 3.088444,-5.321 4.367132,-4.93429 4.784768,-3.63498 3.578263,-2.05209 5.5066,-2.2841 v 0 l 3.15032,-0.75794 3.66592,-0.87652 4.40838,-0.36607 6.06861,0.1753 30.83362,13.60089 16.12281,0.37638 20.9282,0.12375 1.46946,0.005 v 0 l 12.33315,0.0567 v 0 l 1.17557,0.005 3.90825,-0.21656 3.63498,-0.57231 4.83633,0.54474 c 5.025,-2.2893 7.85793,2.46677 13.19514,1.16674 2.97339,-0.48022 9.30328,2.66883 12.29548,2.75355 l 15.49553,1.95772 c 3.14748,0.2225 9.93958,1.32837 11.07925,0.99452 l 19.3267,-14.00619 c 6.24122,-1.66966 7.90625,-3.3511 13.83394,-1.87635 5.2384,2.20881 7.59465,3.1048 12.19361,6.59788 4.17565,4.46444 10.61717,-1.58204 21.17791,0.38314 l 6.01705,0.20624 c 1.58837,-0.0758 3.17218,-0.18615 4.75383,-0.34545 v 0 l 2.15521,-0.22171 2.64503,-0.42794 v 0 l 6.53265,-1.05698 v 0 l 2.53675,-0.4692 v 0 l 5.39833,-1.56227 4.23308,-2.38207 3.10391,-2.51613 1.70664,-2.1913 1.3818,-2.37691 1.23744,-4.16605 0.30421,-2.50066 -0.11859,-2.56253 -0.44857,-2.37176 -0.74247,-2.13974 -1.04666,-2.11396 -1.18073,-2.16552 -3.01626,-3.74841 -3.23797,-3.00595 -4.91882,-3.29984 v 0 l -6.08923,-2.9647 v 0 l -0.18562,-0.0876 -5.73347,-3.20704 -8.22382,-6.51718 -5.3674,-3.55764 -11.25554,-5.81597 v 0 l -4.92914,-2.5419 -4.4651,-2.39239 v 0 l -3.14,-1.6757 c -3.02753,-5.43378 -2.10296,-6.5886 -4.20759,-9.52313 -0.40389,-0.69262 -0.80777,-1.38525 -1.21166,-2.07787 l -1.47977,-3.64013 -0.40183,-9.31947 -1.61771,-4.80107 -1.82011,-3.81889 -3.0681,-5.24396 c -1.71943,-1.77236 -3.34524,-3.68367 -4.90978,-6.04574 -1.74869,-4.73507 0.0971,-4.07064 -2.03595,-7.69308 l -1.13554,-2.05724 -1.32891,-2.75114 -10e-4,-2.18099 0.27909,-2.15188 1.55711,-2.36145 1.79944,-2.08303 2.10365,-1.95412 4.3826,-2.90283 2.73268,-1.32509 2.75846,-0.96417 3.32562,-0.73215 3.305,-0.43826 10.68838,-0.55685 v 0 l 31.35879,-1.95413 5.47052,-0.39701 v 0 l 8.5074,-0.61872 v 0 l 3.57311,-0.26295 2.43363,-0.30936 2.42847,-0.43311 1.83554,-0.56716 1.81491,-0.72184 5.26428,-2.55737 2.65018,-1.94897 2.35114,-2.16037 1.68085,-2.08302 1.34056,-2.33051 1.6293,-4.0423 0.9487,-4.04231 0.37639,-3.69169 0.11859,-2.68628 0.0567,-2.81518 0.41248,-2.28926 0.66513,-2.55222 5.44989,-11.42569 3.5267,-6.08924 4.78477,-7.63088 v 0 l 4.73837,-7.56901 v 0 l 1.66538,-2.67081 2.85643,-5.05803 3.38233,-9.47673 2.11912,-4.31041 3.0472,-4.15574 3.38233,-3.23281 4.01137,-3.09876 4.97038,-2.86158 7.07403,-2.75846 6.98123,-1.47977 6.51203,-0.5981 1.34056,-0.0567 v 0 l 13.31279,-0.54138 v 0 l 7.48135,-0.29389 5.73863,0.28873 5.05288,1.33025 4.73321,2.17583 3.37202,2.04178 2.67596,2.47488 2.26864,2.74299 1.51587,2.3202 1.11885,2.35114 1.21166,5.36224 v 0 l 0.55685,3.54217 0.76309,5.58395 1.04666,7.66697 1.58805,9.8428 v 0 l 1.55196,9.61078 0.562,3.17094 v 0 l 0.79403,2.72753 0.36092,0.71668 0.55684,0.76309 0.65482,0.72184 1.31993,1.24775 1.49524,1.18072 0.89715,0.52592 0.95386,0.4795 1.05182,0.40217 1.22197,0.37123 1.85616,0.40217 2.09849,0.31967 1.90772,0.0516 2.00053,-0.0516 1.39728,-0.15468 1.32509,-0.29904 0.79402,-0.22171 v 0 l 0.28874,-0.0773 0.90745,-0.30421 0.10828,-0.0361 2.43879,-1.22713 2.81517,-1.21681 3.98559,-1.46946 1.77882,-0.3867 1.85101,-0.22171 1.69632,-0.0619 1.69117,-0.005 1.86647,0.17015 1.86647,0.23718 25.76453,6.97091 v 0 l 3.06782,0.76309 v 0 l 9.59607,4.9461 c 9.76994,3.39584 10.37179,9.50164 18.86083,16.67907 0.42377,1.60054 9.46816,-8.30098 12.10864,-11.38777 0,0 5.49382,-12.04579 8.54226,-16.40902 3.04845,-4.36322 9.05703,-9.92539 9.05703,-9.92539 l 6.19752,-4.71259 2.05208,-1.56742 3.24828,-2.4491 0.74762,-0.56716 9.8789,-7.50714 2.34598,-1.84585 2.48003,-1.88194 2.34083,-1.73241 2.68627,-1.83554 2.21708,-1.36118 1.68602,-0.9487 1.6396,-0.87137 2.37176,-1.18072 1.36119,-0.62388 1.71695,-0.71668 1.32509,-0.54138 1.47977,-0.52076 2.02115,-0.63419 1.85616,-0.44341 v 0 l 1.85616,-0.44342 0.99511,-0.23202 v 0 l 2.88736,-0.62903 1.90772,-0.44342 v 0 l 1.9335,-0.44341 0.84043,-0.15984 v 0 l 2.48519,-0.47435 1.29931,-0.19593 1.35087,-0.15468 1.22197,-0.0773 1.10854,-0.0258 2.56769,0.0258 2.63472,0.20624 2.41301,0.32999 10.23466,1.28384 1.75819,0.18046 1.35087,0.0825 1.63961,0.005 1.45399,-0.0825 1.23229,-0.11344 1.5468,-0.27842 0.92808,-0.21655 0.85589,-0.26296 1.63961,-0.562 1.42306,-0.53107 1.05698,-0.48982 1.01573,-0.562 1.17041,-0.69606 1.17557,-0.82496 1.02604,-0.80434 1.52102,-1.44884 0.93839,-1.06729 0.9023,-1.31993 0.31452,-0.43311 0.37123,-0.67028 0.43826,-0.8198 0.54138,-1.23229 0.50013,-1.45914 0.30421,-1.13948 0.21655,-1.2065 0.11859,-1.07245 0.1289,-1.98506 0.0258,-8.49709 0.0155,-1.79944 v 0 -2.66565 l 0.067,-1.01058 0.0928,-0.81465 0.18046,-0.88167 0.11343,-0.49498 0.0722,-0.24233 0.23202,-0.65997 0.11343,-0.28874 0.19077,-0.4331 0.27327,-0.49498 0.31967,-0.55169 0.67028,-0.93839 0.50013,-0.58778 v 0 l 0.62904,-0.70122 1.33024,-1.28384 0.92293,-0.85074 v 0"
     stroke-linecap="round"
     fill="none"
     id="path2"
     sodipodi:nodetypes="cccccccccccccccccccccccccccccccccccccccccccccccccccccccccccccccccccccccccccccccccccccccccccccccccccccccccccccccccccccccccccccccccccccccccccccccccccccccccccccccccccccccccccccccccccccccccccccccccccccccccccccccccccccccccccccccccccccccccccccccccccccccczccccccccccccccccccccccccccccccccccccccccccccccccccccccccccccccccccccccccccccccccccccccc"
     style="stroke-width:8;stroke-dasharray:none" />
  <circle
     stroke="#0000ff"
     stroke-width="0.5156"
     cx="493.25488"
     cy="545.1283"
     r="7.7339997"
     fill="#0000ff"
     id="circle2" />
  <circle
     stroke="#0000ff"
     stroke-width="0.5156"
     cx="572.72668"
     cy="547.09137"
     r="7.7339997"
     fill="#0000ff"
     id="circle2-9" />
  <circle
     stroke="#0000ff"
     stroke-width="0.5156"
     cx="445.18552"
     cy="558.21423"
     r="7.7339997"
     fill="#0000ff"
     id="circle3" />
  <circle
     stroke="#0000ff"
     stroke-width="0.5156"
     cx="385.35016"
     cy="556.90979"
     r="7.7339997"
     fill="#0000ff"
     id="circle4" />
  <circle
     stroke="#0000ff"
     stroke-width="0.5156"
     cx="330.93372"
     cy="545.83466"
     r="7.7339997"
     fill="#0000ff"
     id="circle5" />
  <circle
     stroke="#0000ff"
     stroke-width="0.5156"
     cx="334.07889"
     cy="487.02533"
     r="7.7339997"
     fill="#0000ff"
     id="circle6" />
  <circle
     stroke="#0000ff"
     stroke-width="0.5156"
     cx="325.95819"
     cy="446.02997"
     r="7.7339997"
     fill="#0000ff"
     id="circle7" />
  <circle
     stroke="#0000ff"
     stroke-width="0.5156"
     cx="317.93439"
     cy="356.88916"
     r="7.7339997"
     fill="#0000ff"
     id="circle9" />
  <circle
     stroke="#0000ff"
     stroke-width="0.5156"
     cx="296.41949"
     cy="322.65723"
     r="7.7339997"
     fill="#0000ff"
     id="circle10" />
  <circle
     stroke="#0000ff"
     stroke-width="0.5156"
     cx="229.74724"
     cy="237.85133"
     r="7.7339997"
     fill="#0000ff"
     id="circle12" />
  <circle
     stroke="#0000ff"
     stroke-width="0.5156"
     cx="183.75056"
     cy="203.24426"
     r="7.7339997"
     fill="#0000ff"
     id="circle13" />
  <circle
     stroke="#0000ff"
     stroke-width="0.5156"
     cx="100.52241"
     cy="206.45645"
     r="7.7339997"
     fill="#0000ff"
     id="circle14" />
  <circle
     stroke="#0000ff"
     stroke-width="0.5156"
     cx="43.775883"
     cy="207.06808"
     r="7.7339997"
     fill="#0000ff"
     id="circle14-0" />
  <circle
     stroke="#ff00ff"
     stroke-width="0.5156"
     cx="145.39508"
     cy="457.35254"
     r="7.7339997"
     fill="#ff00ff"
     id="circle15" />
  <circle
     stroke="#ff00ff"
     stroke-width="0.5156"
     cx="104.47509"
     cy="504.26266"
     r="7.7339997"
     fill="#ff00ff"
     id="circle15-0" />
  <circle
     stroke="#ff00ff"
     stroke-width="0.5156"
     cx="80.991486"
     cy="411.76837"
     r="7.7339997"
     fill="#ff00ff"
     id="circle16" />
  <circle
     stroke="#ff00ff"
     stroke-width="0.5156"
     cx="187.8503"
     cy="382.31149"
     r="7.7339997"
     fill="#ff00ff"
     id="circle17" />
  <circle
     stroke="#ff00ff"
     stroke-width="0.5156"
     cx="272.2908"
     cy="388.68561"
     r="7.7339997"
     fill="#ff00ff"
     id="circle18" />
  <circle
     stroke="#ff00ff"
     stroke-width="0.612903"
     cx="353.95276"
     cy="380.32455"
     fill="#ff00ff"
     id="circle19"
     style="fill:#ffd5d5"
     r="9.1935482" />
  <circle
     stroke="#ff00ff"
     stroke-width="0.5156"
     cx="320.66812"
     cy="314.69119"
     r="7.7339997"
     fill="#ff00ff"
     id="circle20" />
  <circle
     stroke="#ff00ff"
     stroke-width="0.5156"
     cx="361.55005"
     cy="232.71596"
     r="7.7339997"
     fill="#ff00ff"
     id="circle22" />
  <circle
     stroke="#ff00ff"
     stroke-width="0.5156"
     cx="413.70624"
     cy="165.20901"
     r="7.7339997"
     fill="#ff00ff"
     id="circle23" />
  <circle
     stroke="#ff00ff"
     stroke-width="0.5156"
     cx="470.51694"
     cy="124.02748"
     r="7.7339997"
     fill="#ff00ff"
     id="circle24" />
  <circle
     stroke="#ff00ff"
     stroke-width="0.5156"
     cx="518.91602"
     cy="189.85413"
     r="7.7339997"
     fill="#ff00ff"
     id="circle25" />
  <circle
     stroke="#ff00ff"
     stroke-width="0.5156"
     cx="618.13959"
     cy="217.98119"
     r="7.7339997"
     fill="#ff00ff"
     id="circle26" />
  <circle
     stroke="#ff00ff"
     stroke-width="0.5156"
     cx="700.35077"
     cy="147.17792"
     r="7.7339997"
     fill="#ff00ff"
     id="circle27" />
  <circle
     stroke="#ff00ff"
     stroke-width="0.5156"
     cx="768.57031"
     cy="103.5236"
     r="7.7339997"
     fill="#ff00ff"
     id="circle27-5" />
  <ellipse
     stroke="#0000ff"
     stroke-width="0.612903"
     cx="292.60138"
     cy="273.48291"
     fill="#0000ff"
     id="circle11"
     style="fill:#ffd5d5"
     rx="9.1935492"
     ry="9.1935482" />
</svg>
